<?xml version="1.0" standalone="no"?><svg xmlns="http://www.w3.org/2000/svg" viewBox="0 0 1440 320"><path fill="#ffae00" fill-opacity="0.6" d="M0,0L20,10.7C40,21,80,43,120,53.3C160,64,200,64,240,85.3C280,107,320,149,360,192C400,235,440,277,480,256C520,235,560,149,600,133.3C640,117,680,171,720,208C760,245,800,267,840,250.7C880,235,920,181,960,165.3C1000,149,1040,171,1080,176C1120,181,1160,171,1200,154.7C1240,139,1280,117,1320,101.3C1360,85,1400,75,1420,69.3L1440,64L1440,320L1420,320C1400,320,1360,320,1320,320C1280,320,1240,320,1200,320C1160,320,1120,320,1080,320C1040,320,1000,320,960,320C920,320,880,320,840,320C800,320,760,320,720,320C680,320,640,320,600,320C560,320,520,320,480,320C440,320,400,320,360,320C320,320,280,320,240,320C200,320,160,320,120,320C80,320,40,320,20,320L0,320Z"></path></svg>