<?xml version="1.0" standalone="no"?><svg xmlns="http://www.w3.org/2000/svg" viewBox="0 0 1440 320"><path fill="#e0ecff" fill-opacity="1" d="M0,320L20,298.7C40,277,80,235,120,197.3C160,160,200,128,240,128C280,128,320,160,360,154.7C400,149,440,107,480,106.7C520,107,560,149,600,170.7C640,192,680,192,720,186.7C760,181,800,171,840,192C880,213,920,267,960,272C1000,277,1040,235,1080,213.3C1120,192,1160,192,1200,208C1240,224,1280,256,1320,245.3C1360,235,1400,181,1420,154.7L1440,128L1440,0L1420,0C1400,0,1360,0,1320,0C1280,0,1240,0,1200,0C1160,0,1120,0,1080,0C1040,0,1000,0,960,0C920,0,880,0,840,0C800,0,760,0,720,0C680,0,640,0,600,0C560,0,520,0,480,0C440,0,400,0,360,0C320,0,280,0,240,0C200,0,160,0,120,0C80,0,40,0,20,0L0,0Z"></path></svg>